Coordinates
version=1
nRows=10
nColumns=33
inDegrees=yes

Units are S.I. units (second, meters, Newtons, ...)
Angles are in degrees.

endheader
time	ground_thorax_rot_x	ground_thorax_rot_y	ground_thorax_rot_z	ground_thorax_tx	ground_thorax_ty	ground_thorax_tz	clav_prot_r	clav_elev_r	scapula_abduction_r	scapula_elevation_r	scapula_upward_rot_r	scapula_winging_r	shoulder_elv_r	plane_of_elev_r	axial_rot_r	elbow_flexion_r	pro_sup_r	wrist_flex_r	wrist_dev_r	clav_prot_l	clav_elev_l	scapula_abduction_l	scapula_elevation_l	scapula_upward_rot_l	scapula_winging_l	shoulder_elv_l	plane_of_elev_l	axial_rot_l	elbow_flexion_l	pro_sup_l	wrist_flex_l	wrist_dev_l
      5.70000000	     40.83055007	      8.12849381	      9.28836178	   -224.40815294	    842.53300657	      4.05370778	     12.27426537	     40.22270091	     38.70786172	     45.00000000	    -28.12283678	  -1170.61081008	  -2813.59222514	     33.10468796	     46.56779251	    731.30576610	     -0.71036983	     18.98537739	      9.19884910	      8.86813219	    -45.00000000	    -38.82616046	     45.00000000	    -45.00000000	   -623.46964893	  -3691.40841686	    135.54313217	   -179.99999979	    731.59834704	     40.44544138	      5.83842169	    -23.65859408
      5.71000000	     40.80025533	      8.32640799	      9.33272020	   -225.54315275	    842.99999861	      4.08784963	     12.24171758	     40.38817572	     38.62489672	     45.00000000	    -28.41152504	  -1170.57685055	  -2813.27571871	     32.97885869	     46.59476785	    731.39351940	     -0.77523835	     19.00160261	      9.30052606	      8.80676681	    -45.00000000	    -38.87954313	     45.00000000	    -45.00000000	   -623.52275854	  -3691.58305531	    135.81835668	   -179.99999979	    731.75419008	     40.88095676	      5.69557252	    -23.69601500
      5.72000000	     40.82210449	      8.09108603	      8.97043991	   -226.64208879	    843.44863964	      4.12499861	     12.23922150	     40.05918648	     38.52226694	     45.00000000	    -28.35984923	  -1170.71369919	  -2813.38236725	     33.22395334	     46.43268992	    731.30164214	     -0.88971730	     18.98439403	      9.08228849	      8.94774986	    -45.00000000	    -38.72533401	     45.00000000	    -45.00000000	   -623.28046481	  -3691.50180892	    135.40059495	   -179.99999979	    731.73351062	     41.31960871	      5.64817116	    -23.72934644
      5.73000000	     40.77543402	      8.46501117	      9.37165498	   -227.70562578	    843.87892147	      4.16567025	     12.16465834	     40.46331753	     38.50500178	     45.00000000	    -28.77118765	  -1170.51852884	  -2813.08643612	     32.79409920	     46.56146196	    731.50118282	     -0.91540030	     19.02530088	      9.32460869	      8.77838514	    -45.00000000	    -38.88712433	     45.00000000	    -45.00000000	   -623.40584732	  -3691.75370460	    136.13303303	   -179.99999979	    731.90321584	     41.70899162	      5.46410296	    -23.72855744
      5.74000000	     40.69285616	      8.14747651	      9.08107568	   -228.72878539	    844.28812529	      4.20971116	     12.19841499	     40.03202656	     38.59588359	     45.00000000	    -28.82361419	  -1170.57575526	  -2813.36813443	     32.95394927	     46.35191656	    731.30683840	     -1.04709369	     18.97959916	      9.04592247	      8.99558355	    -45.00000000	    -38.91182257	     45.00000000	    -45.00000000	   -623.09266631	  -3691.69782749	    135.81850830	   -179.99999979	    731.76928431	     42.21860020	      5.45079284	    -23.75235526
      5.75000000	     40.70093493	      8.12586016	      8.95623337	   -229.71626686	    844.67612188	      4.25721661	     12.20459541	     40.20958396	     38.18684908	     45.00000000	    -29.00220173	  -1170.42942438	  -2813.19846948	     33.24723918	     46.41107303	    731.33776591	     -1.10985706	     18.97196481	      9.14234780	      8.94318714	    -45.00000000	    -38.75066159	     45.00000000	    -45.00000000	   -623.19798036	  -3691.65133354	    135.88094645	   -179.99999979	    731.69131569	     42.64553803	      5.36125908	    -23.75305002
      5.76000000	     40.71111221	      8.06907025	      8.86244880	   -230.66950376	    845.04108285	      4.30804026	     12.12247197	     39.88231285	     38.52287229	     45.00000000	    -29.04613361	  -1170.63094496	  -2813.26708824	     32.90993443	     46.23189038	    731.46363980	     -1.22507451	     19.01770383	      8.94410425	      8.99737612	    -45.00000000	    -38.92599132	     45.00000000	    -45.00000000	   -622.90605106	  -3691.79843686	    135.82058126	   -179.99999979	    731.82564437	     43.03251679	      5.29689353	    -23.79834495
      5.77000000	     40.62371987	      8.14838613	      8.96741188	   -231.59213513	    845.38125463	      4.36212118	     12.20142702	     40.08859607	     38.18609641	     45.00000000	    -29.33779905	  -1170.42754769	  -2813.17750295	     33.13675311	     46.33462772	    731.37615741	     -1.27007492	     18.98033007	      9.02227415	      9.02040205	    -45.00000000	    -38.84008665	     45.00000000	    -45.00000000	   -622.97374554	  -3691.79356557	    136.09634022	   -179.99999979	    731.76167899	     43.46871935	      5.19801164	    -23.78223626
      5.78000000	     40.67108689	      7.93181094	      8.72090963	   -232.48771649	    845.69621622	      4.41933400	     12.12591728	     39.85266938	     38.21644747	     45.00000000	    -29.34232522	  -1170.48764774	  -2813.21006996	     33.17114929	     46.20788127	    731.39319459	     -1.35119010	     18.99781445	      8.85236355	      9.07655152	    -45.00000000	    -38.75811918	     45.00000000	    -45.00000000	   -622.77863687	  -3691.79353310	    135.85069660	   -179.99999979	    731.73304464	     43.85449803	      5.16330373	    -23.81161492
      5.79000000	     40.61796091	      8.18352772	      8.92133572	   -233.35935006	    845.98626137	      4.47957388	     12.16860296	     40.09893533	     37.98266870	     45.00000000	    -29.61664691	  -1170.39134361	  -2813.03628960	     33.15348267	     46.35031724	    731.43196677	     -1.33222066	     19.00320689	      8.95156451	      8.97447662	    -45.00000000	    -38.81552578	     45.00000000	    -45.00000000	   -622.88816328	  -3691.87596744	    136.27494312	   -179.99999979	    731.80589857	     44.18693555	      5.04797569	    -23.80352023
